<svg width="592" height="444" viewBox="0 0 592 444" fill="none" xmlns="http://www.w3.org/2000/svg">
<g clip-path="url(#clip0)">
<path d="M551.328 182.428H0V444H551.328V182.428Z" fill="#3750DB"/>
<path d="M460.181 288.391H91.147V444H460.181V288.391Z" fill="#F0F0F0"/>
<path d="M460.181 297.886H91.147V299.368H460.181V297.886Z" fill="#3F3D56"/>
<path d="M97.7991 296.214C99.2648 296.214 100.453 295.026 100.453 293.56C100.453 292.095 99.2648 290.906 97.7991 290.906C96.3333 290.906 95.1451 292.095 95.1451 293.56C95.1451 295.026 96.3333 296.214 97.7991 296.214Z" fill="#3F3D56"/>
<path d="M106.898 296.214C108.364 296.214 109.552 295.026 109.552 293.56C109.552 292.095 108.364 290.906 106.898 290.906C105.433 290.906 104.244 292.095 104.244 293.56C104.244 295.026 105.433 296.214 106.898 296.214Z" fill="#3F3D56"/>
<path d="M115.997 296.214C117.463 296.214 118.651 295.026 118.651 293.56C118.651 292.095 117.463 290.906 115.997 290.906C114.532 290.906 113.344 292.095 113.344 293.56C113.344 295.026 114.532 296.214 115.997 296.214Z" fill="#3F3D56"/>
<path d="M294.961 367.813L298.89 375.773L307.675 377.049L301.318 383.246L302.819 391.995L294.961 387.864L287.104 391.995L288.604 383.246L282.247 377.049L291.032 375.773L294.961 367.813Z" fill="#3750DB"/>
<path d="M330.309 367.813L334.238 375.773L343.023 377.049L336.666 383.246L338.166 391.995L330.309 387.864L322.451 391.995L323.952 383.246L317.595 377.049L326.38 375.773L330.309 367.813Z" fill="#3750DB"/>
<path d="M365.656 367.813L369.585 375.773L378.37 377.049L372.013 383.246L373.514 391.995L365.656 387.864L357.799 391.995L359.299 383.246L352.943 377.049L361.728 375.773L365.656 367.813Z" fill="#3750DB"/>
<path d="M401.004 367.813L404.933 375.773L413.718 377.049L407.361 383.246L408.862 391.995L401.004 387.864L393.147 391.995L394.647 383.246L388.291 377.049L397.076 375.773L401.004 367.813Z" fill="#3750DB"/>
<path d="M436.352 367.813L440.281 375.773L449.066 377.049L442.709 383.246L444.209 391.995L436.352 387.864L428.494 391.995L429.995 383.246L423.638 377.049L432.423 375.773L436.352 367.813Z" fill="#3750DB"/>
<path d="M260.102 334.332H116.342V425.475H260.102V334.332Z" fill="#3F3D56"/>
<path opacity="0.1" d="M145.657 182.428L0 282.418V231.193L71.0355 182.428H145.657Z" fill="black"/>
<path opacity="0.1" d="M311.315 182.428L0 396.139V344.906L236.693 182.428H311.315Z" fill="black"/>
<path d="M84.2139 257.003L74.2358 246.306L84.9335 236.328L94.9115 247.025L84.2139 257.003ZM75.8262 246.361L84.2692 255.413L93.3211 246.97L84.8781 237.919L75.8262 246.361Z" fill="#F0F0F0"/>
<path d="M413.496 250.275H398.867V235.646H413.496V250.275ZM399.993 249.149H412.371V236.772H399.993V249.149Z" fill="#3F3D56"/>
<path d="M504.132 375.113C508.257 375.113 511.601 371.77 511.601 367.645C511.601 363.52 508.257 360.177 504.132 360.177C500.007 360.177 496.663 363.52 496.663 367.645C496.663 371.77 500.007 375.113 504.132 375.113Z" fill="#F0F0F0"/>
<path d="M504.132 389.22C499.865 389.22 495.693 387.954 492.145 385.584C488.597 383.213 485.831 379.844 484.198 375.901C482.565 371.959 482.138 367.621 482.97 363.436C483.803 359.251 485.858 355.407 488.875 352.389C491.893 349.372 495.737 347.317 499.923 346.485C504.108 345.652 508.446 346.079 512.389 347.712C516.331 349.345 519.701 352.111 522.072 355.659C524.442 359.207 525.708 363.378 525.708 367.645C525.701 373.365 523.426 378.849 519.381 382.894C515.336 386.938 509.852 389.213 504.132 389.22ZM504.132 347.73C500.193 347.73 496.342 348.898 493.067 351.086C489.792 353.274 487.239 356.385 485.732 360.024C484.224 363.663 483.83 367.667 484.598 371.53C485.367 375.393 487.264 378.942 490.049 381.727C492.834 384.512 496.383 386.409 500.246 387.178C504.11 387.946 508.114 387.552 511.753 386.044C515.393 384.537 518.503 381.984 520.692 378.709C522.88 375.434 524.048 371.584 524.048 367.645C524.042 362.365 521.942 357.303 518.208 353.569C514.474 349.836 509.412 347.736 504.132 347.73Z" fill="#2F2E41"/>
<path d="M169.696 405.495C173.127 418.176 184.878 426.03 184.878 426.03C184.878 426.03 191.066 413.323 187.636 400.642C184.205 387.961 172.454 380.107 172.454 380.107C172.454 380.107 166.266 392.814 169.696 405.495Z" fill="white"/>
<path d="M174.738 402.77C184.151 411.933 185.301 426.019 185.301 426.019C185.301 426.019 171.188 425.249 161.774 416.085C152.361 406.922 151.211 392.836 151.211 392.836C151.211 392.836 165.324 393.606 174.738 402.77Z" fill="#3750DB"/>
<path d="M200.906 405.495C197.475 418.176 185.724 426.03 185.724 426.03C185.724 426.03 179.536 413.323 182.967 400.642C186.397 387.961 198.148 380.107 198.148 380.107C198.148 380.107 204.336 392.814 200.906 405.495Z" fill="white"/>
<path d="M195.865 402.77C186.451 411.933 185.301 426.019 185.301 426.019C185.301 426.019 199.414 425.249 208.828 416.085C218.241 406.922 219.391 392.836 219.391 392.836C219.391 392.836 205.278 393.606 195.865 402.77Z" fill="#3750DB"/>
<path d="M478.458 14.1213H420.275V81.9044H478.458V14.1213Z" fill="#F2F2F2"/>
<path d="M458.676 183.211L457.868 182.422C461.586 178.206 464.404 173.276 466.15 167.932C468.899 159.661 470.242 146.598 461.028 131.339C451.601 115.727 451.177 103.046 452.481 95.1571C453.9 86.5733 457.52 81.7618 457.673 81.5613L458.571 82.2472C458.535 82.2944 454.946 87.0802 453.585 95.408C452.327 103.097 452.766 115.47 461.995 130.755C471.444 146.404 470.044 159.83 467.206 168.337C464.131 177.554 458.898 182.984 458.676 183.211Z" fill="#3F3D56"/>
<path d="M501.053 82.4693H419.71V1.12964H501.053V82.4693ZM420.84 81.3395H499.924V2.25936H420.84V81.3395Z" fill="#3F3D56"/>
<path d="M486.366 24.8538H436.656V25.9835H486.366V24.8538Z" fill="#3F3D56"/>
<path d="M486.366 37.2808H436.656V38.4105H486.366V37.2808Z" fill="#3F3D56"/>
<path d="M486.366 49.7075H436.656V50.8372H486.366V49.7075Z" fill="#3F3D56"/>
<path d="M569.405 63.2642H511.221V131.047H569.405V63.2642Z" fill="#F2F2F2"/>
<path d="M549.623 232.354L548.814 231.564C552.533 227.349 555.351 222.418 557.097 217.075C559.845 208.804 561.188 195.741 551.975 180.482C542.548 164.869 542.123 152.189 543.427 144.3C544.846 135.716 548.467 130.905 548.62 130.704L549.518 131.39C549.482 131.437 545.893 136.223 544.531 144.551C543.274 152.239 543.713 164.613 552.942 179.898C562.391 195.547 560.991 208.973 558.153 217.48C555.078 226.697 549.844 232.127 549.623 232.354Z" fill="#3F3D56"/>
<path d="M592 131.612H510.656V50.2725H592V131.612ZM511.786 130.482H590.87V51.4022H511.786V130.482Z" fill="#3F3D56"/>
<path d="M577.313 73.9966H527.603V75.1263H577.313V73.9966Z" fill="#3F3D56"/>
<path d="M577.313 86.4233H527.603V87.5531H577.313V86.4233Z" fill="#3F3D56"/>
<path d="M577.313 98.8501H527.603V99.9798H577.313V98.8501Z" fill="#3F3D56"/>
<path d="M136.702 12.9917H78.519V80.7747H136.702V12.9917Z" fill="#F2F2F2"/>
<path d="M116.921 182.081L116.112 181.292C119.83 177.076 122.649 172.146 124.395 166.803C127.143 158.532 128.486 145.469 119.272 130.21C109.845 114.597 109.421 101.916 110.725 94.0274C112.144 85.4437 115.764 80.6322 115.918 80.4316L116.815 81.1176C116.779 81.1647 113.191 85.9506 111.829 94.2784C110.572 101.967 111.01 114.341 120.239 129.625C129.688 145.275 128.289 158.7 125.451 167.207C122.375 176.424 117.142 181.854 116.921 182.081Z" fill="#3F3D56"/>
<path d="M159.298 81.3396H77.9542V0H159.298V81.3396ZM79.084 80.2099H158.168V1.12972H79.084V80.2099Z" fill="#3F3D56"/>
<path d="M144.611 23.7241H94.9008V24.8538H144.611V23.7241Z" fill="#3F3D56"/>
<path d="M144.611 36.1509H94.9008V37.2806H144.611V36.1509Z" fill="#3F3D56"/>
<path d="M144.611 48.5779H94.9008V49.7076H144.611V48.5779Z" fill="#3F3D56"/>
<path d="M265.192 206.828L269.12 214.789L277.906 216.065L271.548 222.261L273.049 231.01L265.192 226.879L257.334 231.01L258.834 222.261L252.478 216.065L261.263 214.789L265.192 206.828Z" fill="#F0F0F0"/>
<path d="M279.394 27.3452H279.394C292.969 27.3452 303.974 39.5577 303.974 54.6226V73.7627H298.087L294.679 66.6712L295.531 73.7627H257.692L254.594 67.3159L255.369 73.7627H251.108V58.7343C251.108 41.3986 263.772 27.3452 279.394 27.3452Z" fill="#2F2E41"/>
<path d="M307.559 152.397L322.651 158.811L375.096 201.444C377.024 203.813 378.206 206.702 378.491 209.744C378.869 214.649 394.715 240.304 389.056 243.7C383.396 247.095 363.022 257.282 361.89 250.491C360.758 243.7 354.721 214.649 354.721 214.649L304.163 169.375L307.559 152.397Z" fill="#2F2E41"/>
<path d="M366.795 244.831L373.209 263.696C373.209 263.696 366.418 270.864 369.813 276.901V297.651H375.096L376.605 286.71C376.605 286.71 382.621 297.513 385.66 297.651C392.03 297.941 404.646 300.207 405.023 296.811C405.4 293.416 395.47 290.106 395.47 290.106L384.906 261.055L380.378 243.322L366.795 244.831Z" fill="#2F2E41"/>
<path d="M268.319 147.492C268.319 147.492 264.924 180.693 274.733 186.73C284.543 192.766 327.933 212.008 327.933 212.008C327.933 212.008 309.445 229.363 313.218 233.513C316.991 237.663 333.97 248.981 336.234 246.718C338.498 244.454 363.777 217.29 360.758 208.612C357.74 199.934 315.859 171.638 315.859 171.638L310.954 153.906L309.445 139.569L293.599 129.382L268.319 147.492Z" fill="#2F2E41"/>
<path d="M285.605 70.1916C294.292 70.1916 301.334 63.1497 301.334 54.4632C301.334 45.7767 294.292 38.7349 285.605 38.7349C276.918 38.7349 269.876 45.7767 269.876 54.4632C269.876 63.1497 276.918 70.1916 285.605 70.1916Z" fill="#FFB9B9"/>
<path d="M273.413 60.9053C273.413 60.9053 274.167 75.2421 262.471 79.7695C250.775 84.2969 291.523 113.725 291.523 113.725V80.9014C291.523 80.9014 286.241 75.2421 291.523 66.5646L273.413 60.9053Z" fill="#FFB9B9"/>
<path d="M248.322 128.25L251.341 142.965L260.396 193.521C260.396 193.521 252.85 215.026 263.037 214.649C273.224 214.271 268.319 191.257 268.319 191.257L263.037 149.378V133.155L248.322 128.25Z" fill="#FFB9B9"/>
<path d="M313.218 121.082L316.614 134.287L332.083 171.638C332.083 171.638 342.648 189.37 333.97 188.993C325.292 188.616 325.292 171.638 325.292 171.638L307.559 141.455V124.478L313.218 121.082Z" fill="#FFB9B9"/>
<path d="M315.859 231.249L303.408 242.945C303.408 242.945 294.73 241.058 291.335 251.245C287.939 261.432 285.675 267.846 285.675 267.846L290.203 270.487L295.862 262.564C295.862 262.564 299.258 276.9 302.654 278.032C306.049 279.164 323.028 286.71 321.519 278.032L313.218 265.959C313.218 265.959 312.086 252.377 315.482 251.245C318.878 250.113 327.933 238.795 327.933 238.795L315.859 231.249Z" fill="#2F2E41"/>
<path d="M267.721 159.188C267.721 159.188 303.188 146.36 305.451 147.492C307.136 148.236 308.931 148.702 310.766 148.871L310.734 143.719C310.734 143.719 299.037 139.569 292.623 142.21C286.209 144.851 266.589 156.547 266.589 156.547L267.721 159.188Z" fill="#3F3D56"/>
<path d="M289.26 106.179C289.26 106.179 279.072 94.4836 276.054 87.3152C274.144 82.9695 270.639 79.5228 266.261 77.6865C266.261 77.6865 243.606 82.7878 243.983 91.8426C244.361 100.897 258.321 114.857 258.321 114.857C258.321 114.857 256.434 165.036 266.621 164.281C268.819 161.659 270.37 158.557 271.149 155.226C272.281 149.944 307.37 144.285 307.37 144.285C307.37 144.285 310.388 149.567 310.766 147.303C311.143 145.04 307.747 89.5789 307.747 89.5789L289.755 77.6865L289.26 106.179Z" fill="#D0CDE1"/>
<path d="M246.89 88.1979L246.637 88.3397C245.831 88.7922 245.159 89.4512 244.692 90.2492C244.225 91.0471 243.979 91.955 243.979 92.8796L243.983 120.879C243.98 121.64 243.812 122.391 243.489 123.081C243.167 123.77 242.699 124.382 242.116 124.872C240.663 126.108 239.315 127.889 242.097 128.816C246.624 130.326 264.358 137.871 264.735 135.23C265.112 132.589 265.867 129.571 264.735 129.571C263.849 129.571 258.569 102.517 254.326 90.9492C254.067 90.2411 253.658 89.5976 253.125 89.0634C252.593 88.5293 251.951 88.1171 251.244 87.8554C250.536 87.5938 249.781 87.4889 249.029 87.548C248.277 87.6071 247.547 87.8289 246.89 88.1979V88.1979Z" fill="#D0CDE1"/>
<path d="M302.654 88.2583L307.936 89.7674L313.973 115.8C313.973 115.8 321.142 117.309 318.878 119.95C316.614 122.591 307.181 129.382 307.181 129.382L302.654 88.2583Z" fill="#D0CDE1"/>
<path d="M272.406 34.8593C273.589 33.271 275.122 31.9766 276.886 31.0765C278.65 30.1763 280.598 29.6947 282.578 29.6689H283.06C292.365 29.6689 299.908 38.0881 299.908 48.4736V48.4737H296.79L296.287 44.6414L295.548 48.4737H277.057L275.508 45.2315L275.895 48.4737H272.258C270.56 56.9034 272.999 65.3331 279.575 73.7628H273.378L270.28 67.2784L271.054 73.7628H259.242L256.918 58.8487C256.918 47.6794 263.408 38.208 272.406 34.8593Z" fill="#2F2E41"/>
</g>
<defs>
<clipPath id="clip0">
<rect width="592" height="444" fill="white"/>
</clipPath>
</defs>
</svg>
