<svg width="569" height="444" viewBox="0 0 569 444" fill="none" xmlns="http://www.w3.org/2000/svg">
<g clip-path="url(#clip0)">
<path d="M318.453 305.418C316.977 306.798 315.203 307.818 313.267 308.398C311.332 308.978 309.288 309.103 307.296 308.763C305.305 308.422 303.418 307.626 301.786 306.437C300.153 305.247 298.818 303.696 297.884 301.905L285.766 278.655L290.587 268.216L316.565 284.831C318.246 285.906 319.659 287.351 320.696 289.055C321.733 290.759 322.367 292.677 322.549 294.663C322.731 296.649 322.457 298.651 321.747 300.515C321.037 302.379 319.911 304.056 318.453 305.418V305.418Z" fill="#FFB8B8"/>
<path d="M282.104 281.989L182.769 230.431C182.311 230.193 181.909 229.86 181.589 229.455C181.27 229.05 181.04 228.582 180.916 228.081L159.367 141.293C158.117 136.257 158.792 130.936 161.261 126.372C163.729 121.807 167.813 118.328 172.714 116.613L177.905 114.798C179.062 114.393 180.29 114.23 181.513 114.319C182.736 114.407 183.928 114.746 185.014 115.313C186.101 115.881 187.059 116.665 187.83 117.618C188.601 118.571 189.169 119.671 189.497 120.852L210.735 197.26C210.934 197.975 211.347 198.613 211.919 199.086L292.854 266.101C293.552 266.679 294.009 267.497 294.135 268.395C294.261 269.292 294.047 270.204 293.535 270.952L286.782 280.816C286.28 281.549 285.527 282.072 284.666 282.289C283.804 282.505 282.893 282.398 282.104 281.989V281.989Z" fill="#3750DB"/>
<path d="M92.1228 371.798L49.5374 361.36L51.9479 337.271L94.5333 356.542L92.1228 371.798Z" fill="#FFB8B8"/>
<path d="M216.665 146.969C168.487 121.622 118.056 108.893 64.0004 116.457C80.2945 88.8602 92.3965 63.3461 91.5873 44.2458C91.0586 31.7657 96.3024 19.6511 106.347 12.2164C114.221 6.38274 123.764 3.23542 133.566 3.23961H133.566C142.319 -0.66055 152.236 -1.05455 161.271 2.13889C169.095 4.90003 175.001 11.195 178.168 18.8602C180.016 23.3342 183.994 27.2538 189.765 30.7066C195.111 33.7974 199.466 38.3445 202.322 43.8168C206.124 51.3773 206.385 58.9882 201.403 66.6734C220.059 86.2587 220.111 115.689 216.665 146.969Z" fill="#2F2E41"/>
<path d="M205.924 410.053C202.727 413.887 198.412 416.627 193.582 417.892C188.752 419.157 183.647 418.884 178.979 417.11C143.549 420.384 114.837 395.463 84.0879 371.798L91.3194 352.527L31.0569 309.97L56.7689 293.911L112.21 273.034L205.497 378.874C209.279 383.166 211.401 388.667 211.479 394.385C211.557 400.103 209.587 405.66 205.924 410.053Z" fill="#2F2E41"/>
<path d="M148.368 83.5355C167.006 83.5355 182.115 68.4366 182.115 49.8112C182.115 31.1858 167.006 16.0869 148.368 16.0869C129.73 16.0869 114.621 31.1858 114.621 49.8112C114.621 68.4366 129.73 83.5355 148.368 83.5355Z" fill="#FFB8B8"/>
<path d="M164.438 122.881L125.066 126.895C127.179 103.891 128.011 82.6633 125.066 66.6733H164.438C156.96 92.1317 157.617 110.278 164.438 122.881Z" fill="#FFB8B8"/>
<path d="M114.621 248.945L50.3409 214.418C73.5236 187.561 83.3272 145.635 87.8893 97.8056C88.6608 89.7175 94.8515 89.9933 102.97 89.5578C111.539 89.098 119.962 84.565 127.477 89.1563L149.171 113.245L159.617 102.004L180.142 110.794C182.245 111.695 183.95 113.328 184.939 115.39C185.928 117.452 186.135 119.802 185.52 122.005C185.139 160.693 180.449 194.695 160.42 212.009L143.547 229.674L114.621 248.945Z" fill="#3750DB"/>
<path opacity="0.2" d="M140.333 386.251C140.333 386.251 109.673 357.684 88.8453 359.12Z" fill="black"/>
<path d="M90.9956 362.148L83.7207 405.359L59.5032 404.734L69.2231 359.353L90.9956 362.148Z" fill="#FFB8B8"/>
<path d="M108.111 443.994C106.57 444.041 105.034 443.818 103.57 443.337L64.4882 440.054C60.3884 438.071 57.1704 434.639 55.4572 430.421C53.7439 426.204 53.6571 421.501 55.2137 417.224L59.5811 401.909C67.691 406.159 76.1287 405.555 84.0879 399.099L118.643 423.298C119.983 425.258 120.772 427.543 120.925 429.912C121.078 432.281 120.591 434.648 119.514 436.765C118.437 438.881 116.81 440.669 114.804 441.941C112.797 443.213 110.486 443.922 108.111 443.994Z" fill="#2F2E41"/>
<path d="M11.2438 385.901C11.1971 384.362 11.4197 382.826 11.9015 381.363L15.1864 342.308C17.1706 338.211 20.6052 334.995 24.8255 333.283C29.0457 331.571 33.7515 331.484 38.032 333.04L53.357 337.404C49.1038 345.509 49.7084 353.941 56.1692 361.894L31.9539 396.426C29.9924 397.766 27.7063 398.554 25.3353 398.707C22.9643 398.86 20.5957 398.373 18.4778 397.297C16.36 396.22 14.5709 394.595 13.2981 392.59C12.0254 390.585 11.3158 388.274 11.2438 385.901V385.901Z" fill="#2F2E41"/>
<path d="M92.9264 364.571L64.8039 362.965L65.6074 313.985L46.4855 315.087C18.4241 316.705 -4.37353 291.801 0.714453 264.176C0.819219 263.607 0.934481 263.037 1.06023 262.466C4.04066 249.486 11.811 238.107 22.8194 230.601L51.9479 210.403L75.6512 220.44L94.4322 210.364C99.6101 208.172 105.268 207.355 110.855 207.995C116.442 208.634 121.768 210.707 126.316 214.013V214.013C132.166 218.264 136.434 224.339 138.448 231.28C140.463 238.222 140.11 245.636 137.444 252.355L92.9264 364.571Z" fill="#2F2E41"/>
<path opacity="0.2" d="M76.8564 273.034C76.8564 273.034 64.0004 298.729 65.6074 313.985Z" fill="black"/>
<path opacity="0.2" d="M124.665 144.159L131.704 176.44L174.482 213.214L136.717 174.672L124.665 144.159Z" fill="black"/>
<path opacity="0.2" d="M85.2931 159.416L98.1491 211.608L135.914 225.258L100.56 207.593L85.2931 159.416Z" fill="black"/>
<path d="M188.945 51.8186C164.073 40.3833 135.953 37.1229 111.005 49.4098L114.219 20.5032L168.857 11.6707L188.945 51.8186Z" fill="#2F2E41"/>
<path d="M225.102 283.071C224.037 283.072 223.016 283.496 222.263 284.248C221.509 285.001 221.086 286.021 221.085 287.086V436.436C221.086 437.501 221.509 438.521 222.263 439.274C223.016 440.026 224.037 440.45 225.102 440.451H564.983C566.048 440.45 567.069 440.026 567.822 439.274C568.575 438.521 568.999 437.501 569 436.436V287.086C568.999 286.021 568.575 285.001 567.822 284.248C567.069 283.496 566.048 283.072 564.983 283.071H225.102Z" fill="#E6E6E6"/>
<path d="M229.12 286.684C227.948 286.686 226.825 287.152 225.996 287.979C225.168 288.807 224.702 289.93 224.7 291.101V432.422C224.702 433.592 225.168 434.715 225.996 435.543C226.825 436.371 227.948 436.836 229.12 436.838H560.965C562.137 436.836 563.26 436.371 564.088 435.543C564.917 434.715 565.383 433.592 565.384 432.422V291.101C565.383 289.93 564.917 288.807 564.088 287.979C563.26 287.152 562.137 286.686 560.965 286.684H229.12Z" fill="white"/>
<path d="M236.496 281.329C235.02 282.709 233.246 283.729 231.31 284.309C229.375 284.889 227.331 285.014 225.339 284.674C223.348 284.333 221.462 283.537 219.829 282.348C218.196 281.158 216.861 279.607 215.927 277.816L203.809 254.566L208.63 244.127L234.608 260.742C236.289 261.817 237.702 263.262 238.739 264.966C239.776 266.67 240.41 268.588 240.592 270.574C240.774 272.56 240.5 274.562 239.79 276.426C239.08 278.29 237.954 279.967 236.496 281.329V281.329Z" fill="#FFB8B8"/>
<path d="M200.147 257.9L100.812 206.342C100.354 206.104 99.9518 205.772 99.6322 205.367C99.3127 204.961 99.0831 204.493 98.9588 203.992L77.4105 117.204C76.1602 112.169 76.8353 106.848 79.3038 102.283C81.7722 97.7186 85.8563 94.2388 90.7568 92.5247L95.9479 90.7091C97.1052 90.3043 98.3333 90.1412 99.5561 90.2299C100.779 90.3186 101.971 90.6572 103.057 91.2247C104.144 91.7922 105.102 92.5766 105.873 93.5293C106.644 94.482 107.212 95.5827 107.54 96.7632L128.779 173.172C128.977 173.887 129.39 174.524 129.962 174.997L210.897 242.013C211.595 242.591 212.052 243.409 212.178 244.306C212.304 245.203 212.09 246.115 211.578 246.863L204.825 256.727C204.323 257.46 203.57 257.984 202.709 258.2C201.847 258.416 200.936 258.309 200.147 257.9V257.9Z" fill="#3750DB"/>
<path d="M286.024 356.482C299.001 356.482 309.521 345.969 309.521 333.001C309.521 320.033 299.001 309.52 286.024 309.52C273.047 309.52 262.527 320.033 262.527 333.001C262.527 345.969 273.047 356.482 286.024 356.482Z" fill="#3750DB"/>
<path d="M340.29 317.347C339.253 317.348 338.258 317.761 337.525 318.495C336.792 319.229 336.38 320.223 336.38 321.26C336.38 322.297 336.792 323.292 337.525 324.025C338.258 324.759 339.253 325.172 340.29 325.174H524.909C525.947 325.174 526.944 324.761 527.678 324.027C528.412 323.294 528.825 322.298 528.825 321.26C528.825 320.222 528.412 319.227 527.678 318.493C526.944 317.759 525.947 317.347 524.909 317.347H340.29Z" fill="#E6E6E6"/>
<path d="M340.29 340.828C339.252 340.828 338.256 341.24 337.521 341.974C336.787 342.708 336.374 343.703 336.374 344.741C336.374 345.779 336.787 346.775 337.521 347.509C338.256 348.242 339.252 348.655 340.29 348.655H419.732C420.247 348.656 420.757 348.555 421.233 348.359C421.708 348.162 422.141 347.874 422.505 347.511C422.869 347.147 423.158 346.715 423.355 346.24C423.553 345.765 423.654 345.256 423.654 344.741C423.654 344.227 423.553 343.718 423.355 343.242C423.158 342.767 422.869 342.335 422.505 341.972C422.141 341.609 421.708 341.32 421.233 341.124C420.757 340.928 420.247 340.827 419.732 340.828H340.29Z" fill="#E6E6E6"/>
<path d="M268.001 378.367C265.022 378.367 262.598 380.123 262.598 382.281C262.598 384.438 265.022 386.194 268.001 386.194H522.718C525.697 386.194 528.121 384.438 528.121 382.281C528.121 380.123 525.697 378.367 522.718 378.367H268.001Z" fill="#E6E6E6"/>
<path d="M268.001 401.848C265.022 401.848 262.598 403.604 262.598 405.762C262.598 407.92 265.022 409.675 268.001 409.675H522.718C525.697 409.675 528.121 407.92 528.121 405.762C528.121 403.604 525.697 401.848 522.718 401.848H268.001Z" fill="#E6E6E6"/>
</g>
<defs>
<clipPath id="clip0">
<rect width="569" height="444" fill="white"/>
</clipPath>
</defs>
</svg>
