<svg width="611" height="434" viewBox="0 0 611 434" fill="none" xmlns="http://www.w3.org/2000/svg">
<g clip-path="url(#clip0)">
<path d="M79.2742 400.851L77.7105 394.688C74.9379 393.514 72.1012 392.497 69.214 391.642L69.0166 394.506L68.216 391.351C64.6353 390.33 62.1994 389.88 62.1994 389.88C62.1994 389.88 65.4898 402.381 72.3911 411.939L80.4326 413.351L74.1853 414.251C75.0538 415.295 75.9872 416.283 76.9798 417.21C87.0193 426.521 98.2013 430.793 101.956 426.751C105.71 422.71 100.615 411.886 90.5754 402.575C87.3109 399.688 83.6228 397.319 79.6397 395.549L79.2742 400.851Z" fill="#E6E6E6"/>
<path d="M94.1459 394.158L95.9953 388.076C94.2292 385.639 92.3269 383.303 90.2975 381.08L88.647 383.43L89.5938 380.315C87.0572 377.592 85.2047 375.948 85.2047 375.948C85.2047 375.948 81.5538 388.35 82.5171 400.096L88.6708 405.457L82.8573 403.001C83.0607 404.343 83.3485 405.671 83.7188 406.978C87.4961 420.133 94.8584 429.565 100.163 428.045C105.468 426.524 106.706 414.627 102.928 401.471C101.627 397.314 99.6956 393.381 97.2015 389.809L94.1459 394.158Z" fill="#E6E6E6"/>
<path d="M205.937 399.354L204.467 393.562C201.861 392.458 199.195 391.503 196.481 390.699L196.296 393.391L195.543 390.425C192.178 389.465 189.888 389.042 189.888 389.042C189.888 389.042 192.981 400.793 199.467 409.776L207.025 411.102L201.154 411.948C201.97 412.929 202.847 413.858 203.78 414.729C213.216 423.481 223.726 427.496 227.255 423.697C230.783 419.899 225.995 409.725 216.559 400.974C213.49 398.261 210.024 396.034 206.28 394.371L205.937 399.354Z" fill="#E6E6E6"/>
<path d="M219.914 393.064L221.653 387.347C219.993 385.056 218.205 382.861 216.297 380.772L214.746 382.98L215.636 380.053C213.252 377.493 211.511 375.948 211.511 375.948C211.511 375.948 208.079 387.604 208.985 398.644L214.768 403.683L209.304 401.375C209.496 402.637 209.766 403.885 210.114 405.112C213.664 417.477 220.584 426.342 225.57 424.913C230.555 423.484 231.719 412.302 228.169 399.937C226.946 396.03 225.131 392.333 222.786 388.976L219.914 393.064Z" fill="#E6E6E6"/>
<path d="M452.79 402.473L452.05 399.555C450.737 398.999 449.393 398.517 448.026 398.112L447.932 399.469L447.553 397.974C445.857 397.49 444.703 397.277 444.703 397.277C445.746 400.994 447.376 404.521 449.53 407.725L453.339 408.394L450.38 408.82C450.792 409.314 451.234 409.782 451.704 410.221C456.459 414.631 461.755 416.655 463.533 414.741C465.311 412.826 462.898 407.7 458.143 403.29C456.597 401.923 454.85 400.801 452.964 399.962L452.79 402.473Z" fill="#E6E6E6"/>
<path d="M459.834 399.304L460.71 396.423C459.873 395.269 458.973 394.162 458.011 393.11L457.23 394.222L457.678 392.747C456.477 391.457 455.599 390.679 455.599 390.679C454.569 394.399 454.14 398.26 454.326 402.116L457.241 404.655L454.488 403.492C454.584 404.128 454.72 404.757 454.896 405.375C456.685 411.606 460.172 416.073 462.684 415.353C465.196 414.633 465.783 408.998 463.994 402.767C463.377 400.798 462.463 398.936 461.281 397.244L459.834 399.304Z" fill="#E6E6E6"/>
<path d="M516.612 397.431L515.638 393.592C513.911 392.861 512.144 392.227 510.345 391.695L510.222 393.479L509.723 391.513C507.493 390.877 505.975 390.597 505.975 390.597C505.975 390.597 508.025 398.385 512.324 404.339L517.334 405.218L513.442 405.779C513.983 406.429 514.565 407.045 515.183 407.622C521.437 413.423 528.403 416.084 530.742 413.567C533.081 411.049 529.907 404.306 523.653 398.505C521.619 396.707 519.321 395.231 516.84 394.128L516.612 397.431Z" fill="#E6E6E6"/>
<path d="M525.877 393.262L527.029 389.473C525.929 387.955 524.744 386.5 523.48 385.115L522.451 386.579L523.041 384.638C521.461 382.942 520.307 381.918 520.307 381.918C520.307 381.918 518.032 389.644 518.633 396.961L522.466 400.301L518.845 398.771C518.971 399.607 519.151 400.435 519.381 401.248C521.734 409.444 526.321 415.32 529.625 414.372C532.93 413.425 533.701 406.013 531.348 397.818C530.537 395.228 529.334 392.778 527.781 390.553L525.877 393.262Z" fill="#E6E6E6"/>
<path d="M395.523 382.134L399.948 377.008C399.28 373.874 398.436 370.78 397.419 367.741L394.798 369.318L397.064 366.693C395.769 362.948 394.674 360.55 394.674 360.55C394.674 360.55 385.768 371.053 381.637 382.906L385.316 390.778L380.715 385.882C380.334 387.276 380.041 388.694 379.838 390.125C377.84 404.562 380.939 416.919 386.76 417.723C392.582 418.527 398.921 407.476 400.919 393.038C401.446 388.43 401.262 383.768 400.375 379.215L395.523 382.134Z" fill="#E6E6E6"/>
<path d="M410.448 391.01L416.889 388.908C417.938 385.88 418.816 382.795 419.517 379.669L416.458 379.665L419.755 378.588C420.584 374.714 420.888 372.095 420.888 372.095C420.888 372.095 407.83 376.487 398.162 384.5L397.239 393.138L395.833 386.571C394.786 387.568 393.802 388.63 392.888 389.75C383.708 401.077 379.969 413.255 384.536 416.951C389.103 420.646 400.247 414.459 409.427 403.132C412.262 399.459 414.517 395.373 416.112 391.018L410.448 391.01Z" fill="#E6E6E6"/>
<path d="M470.13 402.504L472.098 400.224C471.801 398.83 471.426 397.454 470.973 396.103L469.808 396.804L470.815 395.636C470.24 393.971 469.753 392.904 469.753 392.904C467.303 395.89 465.346 399.246 463.955 402.847L465.591 406.348L463.544 404.17C463.375 404.791 463.245 405.421 463.154 406.058C462.266 412.479 463.644 417.974 466.233 418.332C468.822 418.69 471.641 413.774 472.53 407.353C472.764 405.304 472.683 403.23 472.288 401.205L470.13 402.504Z" fill="#E6E6E6"/>
<path d="M476.768 406.451L479.633 405.516C480.099 404.17 480.49 402.798 480.802 401.407L479.441 401.405L480.907 400.927C481.276 399.203 481.411 398.039 481.411 398.039C477.77 399.33 474.358 401.192 471.304 403.556L470.894 407.398L470.268 404.477C469.802 404.92 469.365 405.393 468.958 405.891C464.875 410.929 463.212 416.345 465.244 417.988C467.275 419.632 472.231 416.88 476.314 411.842C477.575 410.209 478.578 408.392 479.287 406.455L476.768 406.451Z" fill="#E6E6E6"/>
<path d="M0.368225 434C0.368225 434 481.503 384.447 611 434H0.368225Z" fill="#E6E6E6"/>
<path d="M611 131.656C610.057 58.6886 572.802 0 526.976 0C499.437 0 474.992 21.1951 459.663 53.9465L477.686 99.1299L452.778 71.2801C446.496 90.1243 442.93 111.639 442.93 134.488C442.879 151.808 445.013 169.065 449.283 185.851L497.584 178.071L454.357 202.222C468.44 240.798 494.179 267.144 523.847 268.882L518.129 424.301L535.823 424.933L532.041 268.727C574.288 264.707 608.13 210.756 610.841 143.239L581.646 126.928L611 131.656Z" fill="#E6E6E6"/>
<path d="M305.027 127.228L328.277 131.314L336.027 92.4993L317.298 84.3278L305.027 127.228Z" fill="#2F2E41"/>
<path d="M332.984 133.436L356.234 137.521L363.984 98.7072L345.255 90.5357L332.984 133.436Z" fill="#2F2E41"/>
<path d="M360.683 383.222V399.361H372.488L371.245 383.842L360.683 383.222Z" fill="#A0616A"/>
<path d="M299.177 383.222V399.361H287.373L288.616 383.842L299.177 383.222Z" fill="#A0616A"/>
<path d="M303.526 233.619L294.088 291.1C291.685 305.735 290.233 320.511 289.743 335.334L287.994 388.187L300.42 386.946L309.739 326.733C309.739 326.733 333.968 237.344 342.666 255.346C351.364 273.348 355.713 330.457 355.713 330.457L359.441 386.325H373.109L374.351 313.076C374.351 313.076 381.806 210.652 363.168 201.961L303.526 233.619Z" fill="#2F2E41"/>
<path d="M373.73 396.878C373.73 396.878 360.062 387.567 358.819 395.016L353.849 413.018C353.849 413.018 346.394 427.295 362.547 427.295C378.7 427.295 373.73 416.742 373.73 416.742V396.878Z" fill="#2F2E41"/>
<path d="M286.131 396.878C286.131 396.878 299.799 387.567 301.041 395.016L306.011 413.018C306.011 413.018 313.467 427.295 297.313 427.295C281.16 427.295 286.131 416.742 286.131 416.742V396.878Z" fill="#2F2E41"/>
<path d="M338.007 119.09C347.957 119.09 356.024 111.03 356.024 101.088C356.024 91.1461 347.957 83.0864 338.007 83.0864C328.056 83.0864 319.99 91.1461 319.99 101.088C319.99 111.03 328.056 119.09 338.007 119.09Z" fill="#A0616A"/>
<path d="M326.513 108.848C326.513 108.848 328.377 126.229 319.058 129.953L334.59 148.576L355.092 134.299C355.092 134.299 340.181 131.195 342.666 122.504C345.151 113.814 345.151 112.572 345.151 112.572L326.513 108.848Z" fill="#A0616A"/>
<path d="M322.475 127.781C322.475 127.781 335.522 137.713 338.007 137.092C340.492 136.471 345.462 129.643 345.462 129.643C345.462 129.643 363.79 129.953 371.245 134.919C378.7 139.885 364.1 170.613 364.1 170.613C364.1 170.613 368.139 184.58 363.168 188.304C358.198 192.029 364.411 201.34 364.411 201.34C364.411 201.34 351.985 224.308 319.058 232.999C319.058 232.999 298.556 241.069 299.177 236.723C299.799 232.378 306.011 182.718 306.011 182.718V131.195L322.475 127.781Z" fill="#575A89"/>
<path d="M322.464 79.6893C322.464 79.6893 313.056 82.823 312.578 95.1986C312.529 97.1779 312.749 99.1547 313.231 101.075C313.761 103.319 314.101 108.146 309.995 114.454C307.246 118.619 304.735 122.935 302.473 127.383L302.443 127.442L312.777 128.732L314.974 111.618C316.039 103.321 318.322 95.2254 321.747 87.5923L321.819 87.433C321.819 87.433 326.34 95.8219 335.381 95.8219L332.152 92.5954C332.152 92.5954 346.361 98.4031 351.527 98.4031C351.527 98.4031 355.402 100.984 351.527 104.856C347.652 108.728 339.902 117.762 344.423 124.861C348.944 131.959 345.069 133.895 345.069 133.895L352.173 130.023L355.402 128.087V130.668L372.194 128.733C372.194 128.733 376.715 128.087 367.028 117.117C367.028 117.117 364.469 112.857 365.589 109.183C366.508 106.39 366.75 103.419 366.294 100.515C364.123 88.4179 355.608 64.3668 322.464 79.6893Z" fill="#2F2E41"/>
<path d="M251.799 235.171H420.888V328.814H399.41V354.566L376.272 328.814H251.799V235.171Z" fill="#3750DB"/>
<path d="M279.525 267.751H393.162V262.679H279.525V267.751Z" fill="white"/>
<path d="M279.525 284.529H393.162V279.457H279.525V284.529Z" fill="white"/>
<path d="M279.525 301.307H393.162V296.235H279.525V301.307Z" fill="white"/>
<path d="M292.965 180.855L294.828 194.512L308.496 232.378C308.496 232.378 311.603 261.553 319.058 257.829C326.513 254.104 317.815 228.033 317.815 228.033L306.633 192.65L307.254 180.235L292.965 180.855Z" fill="#A0616A"/>
<path d="M313.467 132.436L307.863 130.611L305.39 131.816C305.39 131.816 296.692 132.436 295.45 138.644C294.207 144.852 289.858 183.338 289.858 183.338L312.845 184.58L313.467 132.436Z" fill="#575A89"/>
<path d="M375.904 180.855L374.041 194.512L360.373 232.378C360.373 232.378 357.266 261.553 349.811 257.829C342.356 254.104 351.054 228.033 351.054 228.033L362.236 192.65L361.615 180.235L375.904 180.855Z" fill="#A0616A"/>
<path d="M355.402 132.436L358.39 131.463C360.068 130.916 361.893 131.043 363.479 131.816V131.816C363.479 131.816 372.177 132.436 373.419 138.644C374.662 144.852 379.011 183.338 379.011 183.338L356.024 184.58L355.402 132.436Z" fill="#575A89"/>
<path d="M229.305 11.9292H0V138.922H29.1264V173.844L60.5039 138.922H229.305V11.9292Z" fill="#3750DB"/>
<path d="M191.706 49.2335H37.5997V56.1122H191.706V49.2335Z" fill="white"/>
<path d="M191.706 71.9862H37.5997V78.8649H191.706V71.9862Z" fill="white"/>
<path d="M191.706 94.7389H37.5997V101.618H191.706V94.7389Z" fill="white"/>
<path d="M24.821 190.246C28.2448 190.246 31.0203 187.472 31.0203 184.051C31.0203 180.63 28.2448 177.857 24.821 177.857C21.3972 177.857 18.6217 180.63 18.6217 184.051C18.6217 187.472 21.3972 190.246 24.821 190.246Z" fill="#E6E6E6"/>
</g>
<defs>
<clipPath id="clip0">
<rect width="611" height="434" fill="white"/>
</clipPath>
</defs>
</svg>
