<svg width="33" height="29" viewBox="0 0 33 29" fill="none" xmlns="http://www.w3.org/2000/svg">
<path d="M5.76923 5.38961H26.8901M5.76923 10.7922H24.8462M5.76923 16.1948H19.3956M7.13187 20.9221V27L14.6264 20.9221C14.6264 20.9221 28.9341 20.9221 29.956 20.9221C30.978 20.9221 32 19.9091 32 18.8961C32 17.8831 32 4.37662 32 3.02597C32 1.67532 31.3187 1 29.956 1C28.5934 1 4.40659 1 3.04396 1C1.68132 1 1 1.67532 1 3.02597C1 4.37662 1 17.5455 1 18.8961C1 20.2468 1.68132 20.9221 3.04396 20.9221C4.40659 20.9221 7.13187 20.9221 7.13187 20.9221Z" stroke="#515151"/>
</svg>
