<svg width="37" height="29" viewBox="0 0 37 29" fill="none" xmlns="http://www.w3.org/2000/svg">
<path d="M7.13187 27V20.9221H3.04396C1.68132 20.9221 1 20.2468 1 18.8961V3.02597C1 1.67532 1.68132 1 3.04396 1H29.956C31.3187 1 32 1.67532 32 3.02597V18.8961C32 19.9091 30.978 20.9221 29.956 20.9221H14.6264L7.13187 27Z" fill="white"/>
<path d="M5.76923 5.38961H26.8901M5.76923 10.7922H24.8462M5.76923 16.1948H19.3956M7.13187 20.9221V27L14.6264 20.9221C14.6264 20.9221 28.9341 20.9221 29.956 20.9221C30.978 20.9221 32 19.9091 32 18.8961C32 17.8831 32 4.37662 32 3.02597C32 1.67532 31.3187 1 29.956 1C28.5934 1 4.40659 1 3.04396 1C1.68132 1 1 1.67532 1 3.02597C1 4.37662 1 17.5455 1 18.8961C1 20.2468 1.68132 20.9221 3.04396 20.9221C4.40659 20.9221 7.13187 20.9221 7.13187 20.9221Z" stroke="#515151"/>
<path d="M20.7582 28V24.2597H18.2527C17.4176 24.2597 17 23.8442 17 23.013V13.2468C17 12.4156 17.4176 12 18.2527 12H34.7473C35.5824 12 36 12.4156 36 13.2468V23.013C36 23.6364 35.3736 24.2597 34.7473 24.2597H25.3516L20.7582 28Z" fill="white"/>
<path d="M19.9231 14.7013H32.8681M19.9231 18.026H31.6154M19.9231 21.3506H28.2747M20.7582 24.2597V28L25.3516 24.2597C25.3516 24.2597 34.1209 24.2597 34.7473 24.2597C35.3736 24.2597 36 23.6364 36 23.013C36 22.3896 36 14.0779 36 13.2468C36 12.4156 35.5824 12 34.7473 12C33.9121 12 19.0879 12 18.2527 12C17.4176 12 17 12.4156 17 13.2468C17 14.0779 17 22.1818 17 23.013C17 23.8442 17.4176 24.2597 18.2527 24.2597C19.0879 24.2597 20.7582 24.2597 20.7582 24.2597Z" stroke="#515151" stroke-width="0.5"/>
</svg>
