<svg width="126" height="126" viewBox="0 0 126 126" fill="none" xmlns="http://www.w3.org/2000/svg">
<g opacity="0.1">
<circle cx="8.975" cy="48.3955" r="6.57006" transform="rotate(-30 8.975 48.3955)" fill="#ABABAB"/>
<circle cx="28.6851" cy="82.5347" r="6.57006" transform="rotate(-30 28.6851 82.5347)" fill="#ABABAB"/>
<circle cx="18.83" cy="65.4654" r="6.57006" transform="rotate(-30 18.83 65.4654)" fill="#ABABAB"/>
<circle cx="38.5402" cy="99.604" r="6.57006" transform="rotate(-30 38.5402 99.604)" fill="#ABABAB"/>
<circle cx="48.3953" cy="116.673" r="6.57006" transform="rotate(-30 48.3953 116.673)" fill="#ABABAB"/>
<circle cx="26.0443" cy="38.5406" r="6.57006" transform="rotate(-30 26.0443 38.5406)" fill="#ABABAB"/>
<circle cx="45.7545" cy="72.6792" r="6.57006" transform="rotate(-30 45.7545 72.6792)" fill="#ABABAB"/>
<circle cx="35.8994" cy="55.6099" r="6.57006" transform="rotate(-30 35.8994 55.6099)" fill="#ABABAB"/>
<circle cx="55.6096" cy="89.749" r="6.57006" transform="rotate(-30 55.6096 89.749)" fill="#ABABAB"/>
<circle cx="65.4647" cy="106.818" r="6.57006" transform="rotate(-30 65.4647 106.818)" fill="#ABABAB"/>
<circle cx="43.1139" cy="28.6856" r="6.57006" transform="rotate(-30 43.1139 28.6856)" fill="#ABABAB"/>
<circle cx="62.8241" cy="62.8242" r="6.57006" transform="rotate(-30 62.8241 62.8242)" fill="#ABABAB"/>
<circle cx="52.969" cy="45.7549" r="6.57006" transform="rotate(-30 52.969 45.7549)" fill="#ABABAB"/>
<circle cx="72.6792" cy="79.8941" r="6.57006" transform="rotate(-30 72.6792 79.8941)" fill="#ABABAB"/>
<circle cx="82.5343" cy="96.9634" r="6.57006" transform="rotate(-30 82.5343 96.9634)" fill="#ABABAB"/>
<circle cx="60.1835" cy="18.8301" r="6.57006" transform="rotate(-30 60.1835 18.8301)" fill="#ABABAB"/>
<circle cx="79.8936" cy="52.9693" r="6.57006" transform="rotate(-30 79.8936 52.9693)" fill="#ABABAB"/>
<circle cx="70.0386" cy="35.8999" r="6.57006" transform="rotate(-30 70.0386 35.8999)" fill="#ABABAB"/>
<circle cx="89.7487" cy="70.0391" r="6.57006" transform="rotate(-30 89.7487 70.0391)" fill="#ABABAB"/>
<circle cx="99.6038" cy="87.1084" r="6.57006" transform="rotate(-30 99.6038 87.1084)" fill="#ABABAB"/>
<circle cx="77.2531" cy="8.97512" r="6.57006" transform="rotate(-30 77.2531 8.97512)" fill="#ABABAB"/>
<circle cx="96.9632" cy="43.1143" r="6.57006" transform="rotate(-30 96.9632 43.1143)" fill="#ABABAB"/>
<circle cx="87.1082" cy="26.0449" r="6.57006" transform="rotate(-30 87.1082 26.0449)" fill="#ABABAB"/>
<circle cx="106.818" cy="60.1836" r="6.57006" transform="rotate(-30 106.818 60.1836)" fill="#ABABAB"/>
<circle cx="116.673" cy="77.253" r="6.57006" transform="rotate(-30 116.673 77.253)" fill="#ABABAB"/>
</g>
</svg>
