<svg width="64" height="64" viewBox="0 0 64 64" fill="none" xmlns="http://www.w3.org/2000/svg">
<g id="person_add_24px">
<path id="icon/social/person_add_24px" fill-rule="evenodd" clip-rule="evenodd" d="M40 32C45.8933 32 50.6666 27.2267 50.6666 21.3333C50.6666 15.44 45.8933 10.6667 40 10.6667C34.1066 10.6667 29.3333 15.44 29.3333 21.3333C29.3333 27.2267 34.1066 32 40 32ZM40 16C42.9333 16 45.3333 18.4 45.3333 21.3333C45.3333 24.2667 42.9333 26.6667 40 26.6667C37.0666 26.6667 34.6666 24.2667 34.6666 21.3333C34.6666 18.4 37.0666 16 40 16ZM18.6666 48C18.6666 40.9067 32.88 37.3333 40 37.3333C47.12 37.3333 61.3333 40.9067 61.3333 48V53.3333H18.6666V48ZM24 48C24.5866 46.08 32.8266 42.6667 40 42.6667C47.2 42.6667 55.4666 46.1067 56 48H24ZM16 32V40H10.6666V32H2.66663V26.6667H10.6666V18.6667H16V26.6667H24V32H16Z" fill="#ABABAB"/>
</g>
</svg>
