<svg width="64" height="64" viewBox="0 0 64 64" fill="none" xmlns="http://www.w3.org/2000/svg">
<g id="person_24px">
<path id="icon/social/person_24px" fill-rule="evenodd" clip-rule="evenodd" d="M32 10.6667C26.1066 10.6667 21.3333 15.44 21.3333 21.3333C21.3333 27.2267 26.1066 32 32 32C37.8933 32 42.6666 27.2267 42.6666 21.3333C42.6666 15.44 37.8933 10.6667 32 10.6667ZM37.3333 21.3333C37.3333 18.4 34.9333 16 32 16C29.0666 16 26.6666 18.4 26.6666 21.3333C26.6666 24.2667 29.0666 26.6667 32 26.6667C34.9333 26.6667 37.3333 24.2667 37.3333 21.3333ZM48 48C47.4666 46.1067 39.2 42.6667 32 42.6667C24.8266 42.6667 16.6133 46.08 16 48H48ZM10.6666 48C10.6666 40.9067 24.88 37.3333 32 37.3333C39.12 37.3333 53.3333 40.9067 53.3333 48V53.3333H10.6666V48Z" fill="black" fill-opacity="0.54"/>
</g>
</svg>
