<svg width="65" height="64" viewBox="0 0 65 64" fill="none" xmlns="http://www.w3.org/2000/svg">
<g id="loop_24px">
<path id="icon/av/loop_24px" fill-rule="evenodd" clip-rule="evenodd" d="M32.5001 2.66663V10.6666C44.2867 10.6666 53.8334 20.2133 53.8334 32C53.8334 36.1866 52.6067 40.08 50.5267 43.36L46.6334 39.4666C47.8334 37.2533 48.5001 34.6933 48.5001 32C48.5001 23.1733 41.3267 16 32.5001 16V24L21.8334 13.3333L32.5001 2.66663ZM16.5001 31.9999C16.5001 40.8266 23.6734 47.9999 32.5001 47.9999V39.9999L43.1668 50.6666L32.5001 61.3333V53.3333C20.7134 53.3333 11.1667 43.7866 11.1667 31.9999C11.1667 27.8133 12.3934 23.9199 14.4734 20.6399L18.3667 24.5333C17.1667 26.7466 16.5001 29.3066 16.5001 31.9999Z" fill="#3750DB"/>
</g>
</svg>
