<svg width="65" height="64" viewBox="0 0 65 64" fill="none" xmlns="http://www.w3.org/2000/svg">
<g id="report_gmailerrorred_24px">
<path id="icon/content/report_gmailerrorred_24px" fill-rule="evenodd" clip-rule="evenodd" d="M22.5533 8H42.4467L56.5 22.0533V41.9467L42.4467 56H22.5533L8.5 41.9467V22.0533L22.5533 8ZM40.2333 50.6667L51.1667 39.7333V24.2667L40.2333 13.3333H24.7667L13.8333 24.2667V39.7333L24.7667 50.6667H40.2333ZM32.5 40C31.0272 40 29.8333 41.1939 29.8333 42.6667C29.8333 44.1394 31.0272 45.3333 32.5 45.3333C33.9728 45.3333 35.1667 44.1394 35.1667 42.6667C35.1667 41.1939 33.9728 40 32.5 40ZM35.1667 18.6667H29.8333V37.3333H35.1667V18.6667Z" fill="#3750DB"/>
</g>
</svg>
