<svg width="10" height="20" viewBox="0 0 10 20" fill="none" xmlns="http://www.w3.org/2000/svg">
<path d="M5 8C6.10457 8 7 7.10457 7 6C7 4.89543 6.10457 4 5 4C3.89543 4 3 4.89543 3 6C3 7.10457 3.89543 8 5 8Z" fill="#515151"/>
<path fill-rule="evenodd" clip-rule="evenodd" d="M0 5C0 2.23858 2.23858 0 5 0C7.76142 0 10 2.23858 10 5V15C10 17.7614 7.76142 20 5 20C2.23858 20 0 17.7614 0 15V5ZM9 5V15C9 17.2091 7.20914 19 5 19C2.79086 19 1 17.2091 1 15V5C1 2.79086 2.79086 1 5 1C7.20914 1 9 2.79086 9 5Z" fill="#515151"/>
</svg>
